name rise44.9368peak50.754fall52.0217.mot
datacolumns 19
datarows 21
range 10.32330000000000 10.35663600000000
endheader
time	ground_force1_vx	ground_force1_vy	ground_force1_vz	ground_force1_px	ground_force1_py	ground_force1_pz	ground_force2_vx	ground_force2_vy	ground_force2_vz	ground_force2_px	ground_force2_py	ground_force2_pz	ground_torque1_x	ground_torque1_y	ground_torque1_z	ground_torque2_x	ground_torque2_y	ground_torque2_z	
10.32330000000000	58.00830500000000	775.26795800000002	61.86735100000000	0.37382700000000	0.00000000000000	0.11988400000000	0.00000000000000	0.00000000000000	0.00000000000000	0.00000000000000	0.00000000000000	0.00000000000000	0.00000000000000	31.07926400000000	0.00000000000000	0.00000000000000	0.00000000000000	0.00000000000000	
10.32496600000000	57.14237600000000	776.20253500000001	61.95081000000000	0.37258000000000	0.00000000000000	0.11996400000000	0.00000000000000	0.00000000000000	0.00000000000000	0.00000000000000	0.00000000000000	0.00000000000000	0.00000000000000	31.14200200000000	0.00000000000000	0.00000000000000	0.00000000000000	0.00000000000000	
10.32663000000000	56.27815300000000	776.98678500000005	62.01905800000000	0.37133800000000	0.00000000000000	0.12004500000000	0.00000000000000	0.00000000000000	0.00000000000000	0.00000000000000	0.00000000000000	0.00000000000000	0.00000000000000	31.19356300000000	0.00000000000000	0.00000000000000	0.00000000000000	0.00000000000000	
10.32829500000000	55.41650800000000	777.62237800000003	62.07239700000000	0.37010200000000	0.00000000000000	0.12012700000000	0.00000000000000	0.00000000000000	0.00000000000000	0.00000000000000	0.00000000000000	0.00000000000000	0.00000000000000	31.23417900000000	0.00000000000000	0.00000000000000	0.00000000000000	0.00000000000000	
10.32996900000000	54.55824200000000	778.11117500000000	62.11111700000000	0.36887200000000	0.00000000000000	0.12020900000000	0.00000000000000	0.00000000000000	0.00000000000000	0.00000000000000	0.00000000000000	0.00000000000000	0.00000000000000	31.26407800000000	0.00000000000000	0.00000000000000	0.00000000000000	0.00000000000000	
10.33163500000000	53.70409100000000	778.45523500000002	62.13549700000000	0.36764700000000	0.00000000000000	0.12029200000000	0.00000000000000	0.00000000000000	0.00000000000000	0.00000000000000	0.00000000000000	0.00000000000000	0.00000000000000	31.28348700000000	0.00000000000000	0.00000000000000	0.00000000000000	0.00000000000000	
10.33330200000000	52.85472000000000	778.65681199999995	62.14580800000000	0.36642800000000	0.00000000000000	0.12037500000000	0.00000000000000	0.00000000000000	0.00000000000000	0.00000000000000	0.00000000000000	0.00000000000000	0.00000000000000	31.29262800000000	0.00000000000000	0.00000000000000	0.00000000000000	0.00000000000000	
10.33497000000000	52.01073400000000	778.71836299999995	62.14230700000000	0.36521300000000	0.00000000000000	0.12046000000000	0.00000000000000	0.00000000000000	0.00000000000000	0.00000000000000	0.00000000000000	0.00000000000000	0.00000000000000	31.29172300000000	0.00000000000000	0.00000000000000	0.00000000000000	0.00000000000000	
10.33663600000000	51.17267500000000	778.64254700000004	62.12524800000000	0.36400300000000	0.00000000000000	0.12054400000000	0.00000000000000	0.00000000000000	0.00000000000000	0.00000000000000	0.00000000000000	0.00000000000000	0.00000000000000	31.28099200000000	0.00000000000000	0.00000000000000	0.00000000000000	0.00000000000000	
10.33829800000000	50.34102300000000	778.43222100000003	62.09487800000000	0.36279700000000	0.00000000000000	0.12062900000000	0.00000000000000	0.00000000000000	0.00000000000000	0.00000000000000	0.00000000000000	0.00000000000000	0.00000000000000	31.26065100000000	0.00000000000000	0.00000000000000	0.00000000000000	0.00000000000000	
10.33996100000000	49.51620400000000	778.09044400000005	62.05143600000000	0.36159400000000	0.00000000000000	0.12071500000000	0.00000000000000	0.00000000000000	0.00000000000000	0.00000000000000	0.00000000000000	0.00000000000000	0.00000000000000	31.23091800000000	0.00000000000000	0.00000000000000	0.00000000000000	0.00000000000000	
10.34163300000000	48.69859000000000	777.62047099999995	61.99516200000000	0.36039500000000	0.00000000000000	0.12080100000000	0.00000000000000	0.00000000000000	0.00000000000000	0.00000000000000	0.00000000000000	0.00000000000000	0.00000000000000	31.19201100000000	0.00000000000000	0.00000000000000	0.00000000000000	0.00000000000000	
10.34329800000000	47.88850000000000	777.02575300000001	61.92629100000000	0.35919900000000	0.00000000000000	0.12088800000000	0.00000000000000	0.00000000000000	0.00000000000000	0.00000000000000	0.00000000000000	0.00000000000000	0.00000000000000	31.14414700000000	0.00000000000000	0.00000000000000	0.00000000000000	0.00000000000000	
10.34496500000000	47.08620600000000	776.30993000000001	61.84505900000000	0.35800500000000	0.00000000000000	0.12097500000000	0.00000000000000	0.00000000000000	0.00000000000000	0.00000000000000	0.00000000000000	0.00000000000000	0.00000000000000	31.08754500000000	0.00000000000000	0.00000000000000	0.00000000000000	0.00000000000000	
10.34663300000000	46.29193700000000	775.47682699999996	61.75170300000000	0.35681300000000	0.00000000000000	0.12106200000000	0.00000000000000	0.00000000000000	0.00000000000000	0.00000000000000	0.00000000000000	0.00000000000000	0.00000000000000	31.02242500000000	0.00000000000000	0.00000000000000	0.00000000000000	0.00000000000000	
10.34830000000000	45.50587800000000	774.53044799999998	61.64646500000000	0.35562200000000	0.00000000000000	0.12115000000000	0.00000000000000	0.00000000000000	0.00000000000000	0.00000000000000	0.00000000000000	0.00000000000000	0.00000000000000	30.94901000000000	0.00000000000000	0.00000000000000	0.00000000000000	0.00000000000000	
10.34996700000000	44.72817500000000	773.47496799999999	61.52958800000000	0.35443200000000	0.00000000000000	0.12123800000000	0.00000000000000	0.00000000000000	0.00000000000000	0.00000000000000	0.00000000000000	0.00000000000000	0.00000000000000	30.86752600000000	0.00000000000000	0.00000000000000	0.00000000000000	0.00000000000000	
10.35163300000000	43.95894200000000	772.31472399999996	61.40132300000000	0.35324200000000	0.00000000000000	0.12132600000000	0.00000000000000	0.00000000000000	0.00000000000000	0.00000000000000	0.00000000000000	0.00000000000000	0.00000000000000	30.77820300000000	0.00000000000000	0.00000000000000	0.00000000000000	0.00000000000000	
10.35329900000000	43.19825900000000	771.05421100000001	61.26193000000000	0.35205100000000	0.00000000000000	0.12141500000000	0.00000000000000	0.00000000000000	0.00000000000000	0.00000000000000	0.00000000000000	0.00000000000000	0.00000000000000	30.68127400000000	0.00000000000000	0.00000000000000	0.00000000000000	0.00000000000000	
10.35496200000000	42.44617500000000	769.69806500000004	61.11167500000000	0.35085900000000	0.00000000000000	0.12150300000000	0.00000000000000	0.00000000000000	0.00000000000000	0.00000000000000	0.00000000000000	0.00000000000000	0.00000000000000	30.57697800000000	0.00000000000000	0.00000000000000	0.00000000000000	0.00000000000000	
10.35663600000000	41.70271600000000	768.25105799999994	60.95083600000000	0.34966500000000	0.00000000000000	0.12159200000000	0.00000000000000	0.00000000000000	0.00000000000000	0.00000000000000	0.00000000000000	0.00000000000000	0.00000000000000	30.46555800000000	0.00000000000000	0.00000000000000	0.00000000000000	0.00000000000000	
